<?xml version="1.0" standalone="no"?>
<!DOCTYPE svg PUBLIC "-//W3C//DTD SVG 20010904//EN"
 "http://www.w3.org/TR/2001/REC-SVG-20010904/DTD/svg10.dtd">
<svg version="1.0" xmlns="http://www.w3.org/2000/svg"
 width="200.000000pt" height="68.000000pt" viewBox="0 0 200.000000 68.000000"
 preserveAspectRatio="xMidYMid meet">

<g transform="translate(0.000000,68.000000) scale(0.100000,-0.100000)"
fill="#000000" stroke="none">
<path d="M0 570 l0 -110 110 0 110 0 0 110 0 110 -110 0 -110 0 0 -110z"/>
<path d="M260 640 l0 -40 75 0 75 0 0 -165 0 -165 -162 2 -163 3 -3 73 -3 72
-39 0 -40 0 0 -210 0 -210 50 0 49 0 3 92 3 93 198 3 197 2 0 245 0 245 -120
0 -120 0 0 -40z"/>
<path d="M630 395 l0 -185 35 0 35 0 0 55 0 55 73 0 c39 0 83 6 96 13 60 30
85 109 55 172 -26 56 -75 75 -196 75 l-98 0 0 -185z m220 95 c11 -11 20 -31
20 -45 0 -45 -32 -65 -105 -65 l-65 0 0 65 0 65 65 0 c52 0 69 -4 85 -20z"/>
<path d="M993 573 c-19 -7 -16 -51 4 -62 37 -20 71 27 41 57 -13 13 -24 14
-45 5z"/>
<path d="M1829 470 c-70 -21 -99 -60 -99 -133 0 -59 33 -108 85 -125 48 -16
115 -8 145 16 21 17 21 18 3 34 -15 14 -24 15 -61 5 -35 -9 -48 -9 -70 4 -15
8 -28 22 -30 32 -3 15 7 17 97 17 l101 0 0 25 c0 39 -25 92 -52 108 -30 19
-86 27 -119 17z m82 -60 c10 -6 19 -17 19 -25 0 -12 -15 -15 -65 -15 -68 0
-79 9 -43 34 26 18 61 20 89 6z"/>
<path d="M980 340 l0 -130 35 0 35 0 0 130 0 130 -35 0 -35 0 0 -130z"/>
<path d="M1170 463 c-28 -10 -59 -46 -71 -80 -36 -111 68 -214 175 -169 l36
15 0 -65 0 -64 30 0 30 0 0 185 0 185 -25 0 c-14 0 -28 -7 -31 -15 -5 -13 -8
-13 -27 0 -21 15 -87 19 -117 8z m108 -69 c29 -20 31 -83 2 -109 -48 -44 -120
-10 -120 56 0 43 27 69 70 69 14 0 36 -7 48 -16z"/>
<path d="M1420 390 c0 -126 34 -183 109 -183 22 0 52 8 66 17 22 14 25 15 25
1 0 -10 10 -15 30 -15 l30 0 0 130 0 130 -29 0 -29 0 -3 -86 c-4 -76 -7 -88
-28 -105 -30 -24 -56 -24 -81 1 -17 17 -20 33 -20 105 l0 85 -35 0 -35 0 0
-80z"/>
</g>
</svg>